<svg width="64" height="64" viewBox="0 0 64 64" fill="none" xmlns="http://www.w3.org/2000/svg" role="img" aria-label="Studenta dzīve"><rect width="64" height="64" rx="18" fill="#3B49E0"/><path d="M19 19H15V45H19M45 19H49V45H45" stroke="#fff" stroke-width="4" stroke-linecap="round" stroke-linejoin="round"/><g fill="#fff"><path transform="translate(17.300 39.5) scale(0.02100 -0.02100)" d="M243 191Q271 120 362 120Q463 120 463 177Q463 221 387 230L298 240Q93 263 93 429Q93 524 162.5 579.0Q232 634 355 634Q486 634 556.5 577.0Q627 520 633 411H482Q459 495 354 495Q248 495 248 436Q248 393 323 384L412 374Q618 350 618 186Q618 89 550.0 35.0Q482 -19 361 -19Q237 -19 168.0 34.5Q99 88 91 191Z"/><path transform="translate(32.000 39.5) scale(0.02100 -0.02100)" d="M283 -16Q209 -16 154.0 23.5Q99 63 69.0 135.5Q39 208 39 307Q39 407 69.0 479.5Q99 552 154.0 591.5Q209 631 283 631Q328 631 365.0 611.0Q402 591 420 557H457V848H619V0H457V58H420Q402 24 365.0 4.0Q328 -16 283 -16ZM331 128Q396 128 432.0 175.0Q468 222 468 307Q468 393 432.0 440.0Q396 487 331 487Q267 487 231.0 440.0Q195 393 195 307Q195 222 231.0 175.0Q267 128 331 128Z"/></g></svg>