<svg width="386" height="64" viewBox="0 0 386 64" fill="none" xmlns="http://www.w3.org/2000/svg" role="img" aria-label="Studenta dzīve"><rect width="64" height="64" rx="18" fill="#3B49E0"/><path d="M19 19H15V45H19M45 19H49V45H45" stroke="#fff" stroke-width="4" stroke-linecap="round" stroke-linejoin="round"/><g fill="#fff"><path transform="translate(17.300 39.5) scale(0.02100 -0.02100)" d="M243 191Q271 120 362 120Q463 120 463 177Q463 221 387 230L298 240Q93 263 93 429Q93 524 162.5 579.0Q232 634 355 634Q486 634 556.5 577.0Q627 520 633 411H482Q459 495 354 495Q248 495 248 436Q248 393 323 384L412 374Q618 350 618 186Q618 89 550.0 35.0Q482 -19 361 -19Q237 -19 168.0 34.5Q99 88 91 191Z"/><path transform="translate(32.000 39.5) scale(0.02100 -0.02100)" d="M283 -16Q209 -16 154.0 23.5Q99 63 69.0 135.5Q39 208 39 307Q39 407 69.0 479.5Q99 552 154.0 591.5Q209 631 283 631Q328 631 365.0 611.0Q402 591 420 557H457V848H619V0H457V58H420Q402 24 365.0 4.0Q328 -16 283 -16ZM331 128Q396 128 432.0 175.0Q468 222 468 307Q468 393 432.0 440.0Q396 487 331 487Q267 487 231.0 440.0Q195 393 195 307Q195 222 231.0 175.0Q267 128 331 128Z"/></g><g fill="#16161A"><path transform="translate(86.00 41) scale(0.03000 -0.03000)" d="M229 219Q255 133 358 133Q412 133 443.0 158.0Q474 183 474 228Q474 260 452.5 281.0Q431 302 393 308L293 323Q187 340 130.0 402.5Q73 465 73 566Q73 644 108.0 700.5Q143 757 207.5 788.0Q272 819 360 819Q492 819 569.5 751.0Q647 683 654 561H496Q469 667 360 667Q303 667 270.5 641.5Q238 616 238 571Q238 539 259.5 517.5Q281 496 320 490L419 475Q525 458 582.0 395.5Q639 333 639 233Q639 155 604.5 98.5Q570 42 507.0 11.5Q444 -19 357 -19Q226 -19 149.5 43.5Q73 106 65 219Z"/><path transform="translate(107.00 41) scale(0.03000 -0.03000)" d="M346 774V615H615V471H346V214Q346 125 409 125Q442 125 461.0 152.0Q480 179 493 240H636Q629 114 569.5 47.5Q510 -19 405 -19Q298 -19 241.0 41.0Q184 101 184 213V471H69V615H184V774Z"/><path transform="translate(128.00 41) scale(0.03000 -0.03000)" d="M611 615V0H449V56H412Q392 20 356.0 0.5Q320 -19 273 -19Q181 -19 130.5 45.0Q80 109 80 225V615H242V264Q242 132 345 132Q449 132 449 264V615Z"/><path transform="translate(149.00 41) scale(0.03000 -0.03000)" d="M283 -16Q209 -16 154.0 23.5Q99 63 69.0 135.5Q39 208 39 307Q39 407 69.0 479.5Q99 552 154.0 591.5Q209 631 283 631Q328 631 365.0 611.0Q402 591 420 557H457V848H619V0H457V58H420Q402 24 365.0 4.0Q328 -16 283 -16ZM331 128Q396 128 432.0 175.0Q468 222 468 307Q468 393 432.0 440.0Q396 487 331 487Q267 487 231.0 440.0Q195 393 195 307Q195 222 231.0 175.0Q267 128 331 128Z"/><path transform="translate(170.00 41) scale(0.03000 -0.03000)" d="M643 191Q613 90 539.0 35.5Q465 -19 360 -19Q225 -19 148.5 67.5Q72 154 72 311Q72 410 107.5 482.5Q143 555 208.0 594.5Q273 634 360 634Q487 634 558.5 549.5Q630 465 630 312Q630 296 629.0 282.0Q628 268 626 256H231Q249 120 364 120Q442 120 487 191ZM360 495Q307 495 275.0 463.0Q243 431 233 372H483Q464 495 360 495Z"/><path transform="translate(191.00 41) scale(0.03000 -0.03000)" d="M89 0V615H251V559H288Q308 595 344.0 614.5Q380 634 427 634Q519 634 569.5 569.5Q620 505 620 390V0H458V350Q458 483 355 483Q251 483 251 350V0Z"/><path transform="translate(212.00 41) scale(0.03000 -0.03000)" d="M346 774V615H615V471H346V214Q346 125 409 125Q442 125 461.0 152.0Q480 179 493 240H636Q629 114 569.5 47.5Q510 -19 405 -19Q298 -19 241.0 41.0Q184 101 184 213V471H69V615H184V774Z"/><path transform="translate(233.00 41) scale(0.03000 -0.03000)" d="M413 61Q395 23 360.5 4.0Q326 -15 273 -15Q217 -15 174.0 7.5Q131 30 107.0 70.5Q83 111 83 164Q83 245 133.5 295.0Q184 345 279 360L450 387V390Q450 494 343 494Q288 494 254.0 467.5Q220 441 211 393H55Q65 505 142.0 569.5Q219 634 344 634Q472 634 540.0 574.0Q608 514 608 402V0H450V61ZM247 180Q247 152 265.5 135.5Q284 119 319 119Q356 119 385.5 134.5Q415 150 432.5 177.0Q450 204 450 236V267L314 246Q282 241 264.5 223.5Q247 206 247 180Z"/></g><g fill="#9A9AA2"><path transform="translate(275.00 41) scale(0.03000 -0.03000)" d="M283 -16Q209 -16 154.0 23.5Q99 63 69.0 135.5Q39 208 39 307Q39 407 69.0 479.5Q99 552 154.0 591.5Q209 631 283 631Q328 631 365.0 611.0Q402 591 420 557H457V848H619V0H457V58H420Q402 24 365.0 4.0Q328 -16 283 -16ZM331 128Q396 128 432.0 175.0Q468 222 468 307Q468 393 432.0 440.0Q396 487 331 487Q267 487 231.0 440.0Q195 393 195 307Q195 222 231.0 175.0Q267 128 331 128Z"/><path transform="translate(296.00 41) scale(0.03000 -0.03000)" d="M102 615H598V359L228 159V141H598V0H102V256L472 456V473H102Z"/><path transform="translate(317.00 41) scale(0.03000 -0.03000)" d="M124 615H466V144H647V0H124V144H304V471H124ZM203 716V833H551V716Z"/><path transform="translate(338.00 41) scale(0.03000 -0.03000)" d="M44 615H208L346 120H364L502 615H656L482 0H218Z"/><path transform="translate(359.00 41) scale(0.03000 -0.03000)" d="M643 191Q613 90 539.0 35.5Q465 -19 360 -19Q225 -19 148.5 67.5Q72 154 72 311Q72 410 107.5 482.5Q143 555 208.0 594.5Q273 634 360 634Q487 634 558.5 549.5Q630 465 630 312Q630 296 629.0 282.0Q628 268 626 256H231Q249 120 364 120Q442 120 487 191ZM360 495Q307 495 275.0 463.0Q243 431 233 372H483Q464 495 360 495Z"/></g></svg>